<svg width="50" height="50" fill="none" xmlns="http://www.w3.org/2000/svg"><rect x=".153" y=".468" width="48.879" height="48.879" rx="11.961" fill="#F9668D"/><path d="M23.737 21.515h1.712v-.848c0-.224.09-.44.25-.6a.86.86 0 0 1 .606-.247h2.568a.86.86 0 0 1 .605.248c.161.159.251.375.251.6v.848h3.424v-3.392c0-.9-.36-1.763-1.003-2.399a3.44 3.44 0 0 0-2.42-.993H19.456a3.44 3.44 0 0 0-2.421.993 3.376 3.376 0 0 0-1.003 2.399v3.392h3.424v-.848c0-.225.09-.441.25-.6a.86.86 0 0 1 .606-.248h2.568a.86.86 0 0 1 .605.248c.16.159.251.375.251.6v.848ZM16.889 23.212a4.3 4.3 0 0 0-3.026 1.241 4.22 4.22 0 0 0-1.254 2.998v6.784c0 .225.09.441.25.6a.86.86 0 0 0 1.211 0 .844.844 0 0 0 .251-.6v-4.24h20.544v4.24c0 .225.09.441.25.6a.86.86 0 0 0 1.21 0 .844.844 0 0 0 .252-.6v-6.784a4.22 4.22 0 0 0-1.254-2.998 4.3 4.3 0 0 0-3.026-1.241H16.889Z" fill="#fff"/></svg>