<svg width="89" height="19" fill="none" xmlns="http://www.w3.org/2000/svg"><path stroke="#CCC" stroke-width=".748" stroke-dasharray="2.24 2.24" d="M4.539 9.028h77.409"/><path d="M43.844 16.442h-1.02a.66.66 0 0 1-.294-.068.595.595 0 0 1-.222-.189.52.52 0 0 1-.043-.535l2.472-4.984-3.712-.076-1.353 1.5c-.258.296-.464.428-.99.428h-.687a.732.732 0 0 1-.314-.061.669.669 0 0 1-.25-.187.585.585 0 0 1-.093-.575l.76-2.488a.61.61 0 0 1 .02-.06.49.49 0 0 1-.02-.056l-.76-2.504a.575.575 0 0 1 .098-.562.636.636 0 0 1 .23-.174c.09-.041.19-.062.291-.061h.726c.392 0 .773.16.996.42l1.326 1.474 3.732-.05-2.471-4.976a.518.518 0 0 1 .043-.535.596.596 0 0 1 .221-.19.66.66 0 0 1 .294-.068h1.032c.144.003.285.035.413.095.129.059.241.144.329.249l4.794 5.326 2.216-.053c.162-.008.611-.011.715-.011 2.119 0 3.384.63 3.384 1.683 0 .331-.145.946-1.114 1.337-.573.231-1.337.348-2.27.348-.103 0-.552-.003-.716-.01l-2.215-.055-4.807 5.327a.944.944 0 0 1-.328.248c-.128.059-.269.09-.413.093Z" fill="#1262AE"/><circle cx="4.732" cy="9.402" r="2.99" fill="#fff" stroke="#1262AE" stroke-width="1.495"/><circle cx="84.981" cy="9.09" r="2.99" fill="#fff" stroke="#1262AE" stroke-width="1.495"/></svg>