<svg width="50" height="50" fill="none" xmlns="http://www.w3.org/2000/svg"><rect x=".596" y=".468" width="48.879" height="48.879" rx="11.961" fill="#36DA76"/><path d="M31.366 34.434c-.041-.877-.096-1.75-.14-2.62-.14-2.723-.128-5.487-.276-8.224-.147-2.716-.06-5.434-.137-8.15-.016-.565.01-1.68-.575-2.002-1.256-.691-2.002 1.195-2.322 1.962-.576 1.394-.91 2.86-1.32 4.303-.352 1.236-.751 2.468-.887 3.747-.1.96-.09 2.035.41 2.9.253.435.688.73 1.184.856.515.132 1.103-.04 1.591.192a.62.62 0 0 1 .288.314c.158.412.008 1.036-.041 1.46-.157 1.367-.323 2.748-.397 4.122-.044.83-.092 1.894.41 2.618.308.44.932.85 1.496.631.841-.322.75-1.41.716-2.108ZM20.656 14.045c-.242.097-.15.962-.161 1.228-.016.477.017 1.109-.04 1.727a.09.09 0 0 1-.003.014c-.005.043-.009.09-.016.138-.008.047-.015.093-.021.14-.052.301-.15.659-.336.83-.21.196-.682.155-.846-.077-.269-.377-.248-1.218-.265-1.243a37.64 37.64 0 0 0-.156-2.395c-.007-.06-.018-.42-.347-.458-.153-.017-.314.114-.366.352-.155.704-.3 2.045-.308 2.256a.82.82 0 0 0-.003.064v.006c-.002.044-.054 1.095-.32 1.457-.139.19-.5.34-.858.139-.143-.081-.24-.238-.31-.405-.375-1.167-.038-2.453.01-3.065.014-.173.17-.748-.178-.729-.524.029-1.201 2.262-1.322 2.774-.297 1.274-.342 2.635.174 3.863.287.68.848 1.238 1.543 1.508.308.118.65.204 1.01.253-.13 2.896-.277 5.918-.412 7.6-.103 1.265-.225 2.544-.209 3.815.01.759.002 1.664.5 2.3.522.666 1.621.36 1.918-.426.333-.886.236-1.918.123-3.545-.114-1.628-.242-3.85-.313-5.044a89.49 89.49 0 0 1-.15-4.7c.927-.133 1.79-.53 2.274-1.261.212-.32.351-.677.447-1.044a5.747 5.747 0 0 0 .186-1.74c-.032-.529-.467-4.644-1.245-4.332Z" fill="#fff"/></svg>