<svg width="25" height="24" fill="none" xmlns="http://www.w3.org/2000/svg"><path d="M17.005.955a2.64 2.64 0 0 0-1.857-.761 2.64 2.64 0 0 0-1.857.761L1.758 12.382a2.6 2.6 0 0 0-.769 1.84 2.581 2.581 0 0 0 .77 1.84l1.368 1.354c.595.59 1.432.485 1.937.187a1.47 1.47 0 0 1 1.777.22 1.44 1.44 0 0 1 .223 1.761c-.3.5-.407 1.33.19 1.92l1.369 1.355a2.628 2.628 0 0 0 1.857.762 2.648 2.648 0 0 0 1.857-.762L23.87 11.435a2.6 2.6 0 0 0 .77-1.84 2.581 2.581 0 0 0-.77-1.84L22.502 6.4c-.596-.59-1.434-.486-1.94-.187a1.47 1.47 0 0 1-1.776-.221 1.44 1.44 0 0 1-.223-1.76c.301-.501.407-1.33-.19-1.92L17.007.955h-.002Z" fill="#fff"/></svg>