<svg width="131" height="26" fill="none" xmlns="http://www.w3.org/2000/svg"><g clip-path="url('#clip0_1038_1489')"><path d="M97.862 6.69c1.02 0 1.944.13 2.776.389.831.26 1.533.594 2.105 1.006.357.25.639.527.845.83.205.305.308.698.308 1.18v9.387l-.004.255c-.03.84-.207 1.573-.532 2.199a4.936 4.936 0 0 1-1.462 1.716c-.617.456-1.341.791-2.172 1.006-.832.214-1.721.322-2.668.322-1.628 0-2.906-.22-3.835-.657-.93-.438-1.395-1.15-1.395-2.132 0-.412.085-.774.255-1.086.17-.313.362-.55.576-.711a9.012 9.012 0 0 0 1.757.724 6.978 6.978 0 0 0 2.025.295c.965 0 1.734-.161 2.306-.483.572-.322.858-.84.858-1.555v-.43l-.204.084c-.693.266-1.519.4-2.478.4-.804 0-1.569-.121-2.293-.363a5.129 5.129 0 0 1-1.904-1.126c-.545-.51-.983-1.167-1.314-1.971-.33-.805-.496-1.761-.496-2.87 0-1.09.175-2.038.523-2.842.349-.805.832-1.47 1.448-1.998.617-.528 1.35-.92 2.2-1.18.849-.26 1.774-.389 2.775-.389Zm-72.185.416c1.594 0 2.899.358 3.914 1.074 1.014.715 1.615 1.979 1.802 3.791h-3.407l-.032-.2a2.92 2.92 0 0 0-.446-1.083c-.373-.514-.953-.77-1.738-.77-1.12 0-1.886.556-2.298 1.668-.218.591-.327 1.377-.327 2.357 0 .933.109 1.683.327 2.251.396 1.058 1.143 1.587 2.24 1.587.777 0 1.33-.21 1.656-.63.327-.42.525-.965.595-1.633h3.395l-.023.232c-.113.925-.47 1.805-1.074 2.637-1.042 1.455-2.586 2.182-4.631 2.182-2.046 0-3.55-.607-4.515-1.82-.964-1.213-1.446-2.788-1.446-4.725 0-2.185.532-3.884 1.598-5.098 1.065-1.213 2.535-1.82 4.41-1.82Zm30.897-.035c1.057 0 2.01.199 2.858.595.847.397 1.547 1.023 2.1 1.879.497.754.82 1.629.968 2.624.086.584.12 1.424.105 2.52h-8.703l.012.221c.083 1.159.48 1.98 1.19 2.462.459.32 1.01.479 1.656.479.685 0 1.24-.195 1.669-.584.233-.21.439-.501.618-.875h3.395l-.026.175c-.122.698-.507 1.406-1.153 2.124-1.088 1.236-2.613 1.855-4.573 1.855-1.617 0-3.045-.521-4.281-1.564-1.237-1.042-1.855-2.737-1.855-5.086 0-2.201.558-3.889 1.674-5.063 1.116-1.174 2.565-1.762 4.346-1.762ZM79.919 2.4c.393 0 .746.027 1.059.08.313.054.577.162.791.322.215.161.38.38.496.658.116.277.174.639.174 1.086v15.554l-.09.016c-.191.034-.452.078-.781.131a7.246 7.246 0 0 1-2.226.014 1.804 1.804 0 0 1-.791-.322c-.215-.161-.38-.38-.496-.657-.116-.277-.175-.64-.175-1.086V2.64l.09-.017c.192-.033.453-.077.782-.13a7.25 7.25 0 0 1 1.167-.095Zm6.853 4.64c.393 0 .746.026 1.059.08.313.054.577.161.791.322.215.16.38.38.496.657.117.277.175.64.175 1.086V20.1l-.09.016c-.192.034-.453.078-.782.131a7.246 7.246 0 0 1-2.226.014 1.805 1.805 0 0 1-.791-.322c-.215-.161-.38-.38-.496-.657-.116-.277-.174-.64-.174-1.086V7.28l.09-.016c.191-.034.452-.078.781-.131a7.249 7.249 0 0 1 1.167-.094Zm21.349-4.64c.393 0 .746.027 1.059.08a1.8 1.8 0 0 1 .791.322c.215.161.38.38.496.658.117.277.175.639.175 1.086v2.628l.093-.034c.229-.082.552-.173.966-.275a6.59 6.59 0 0 1 1.569-.174c1.77 0 3.151.443 4.143 1.328.992.884 1.489 2.203 1.489 3.955V20.1l-.083.023a7.309 7.309 0 0 1-.762.138c-.385.053-.782.08-1.194.08a6.3 6.3 0 0 1-1.059-.08 1.805 1.805 0 0 1-.791-.322c-.215-.161-.38-.38-.496-.657-.116-.277-.174-.64-.174-1.086V12.24l-.004-.165c-.026-.646-.208-1.104-.546-1.377-.367-.295-.818-.442-1.354-.442-.358 0-.698.045-1.02.134-.321.09-.581.197-.777.322v9.386l-.083.023a7.309 7.309 0 0 1-.762.138c-.384.053-.782.08-1.193.08-.394 0-.747-.027-1.06-.08a1.805 1.805 0 0 1-.791-.322 1.55 1.55 0 0 1-.496-.657c-.116-.277-.174-.64-.174-1.086V2.64l.09-.017c.191-.033.452-.077.781-.13a7.263 7.263 0 0 1 1.167-.095ZM76.015 3.874l.062.104c.1.183.192.412.274.687.098.331.147.675.147 1.033 0 .697-.147 1.193-.442 1.488-.295.295-.693.443-1.194.443h-5.631v3.03h5.873l.07.104c.112.18.21.406.292.674.098.322.147.661.147 1.019 0 .68-.147 1.166-.442 1.461-.295.295-.693.443-1.194.443h-4.693v5.658l-.09.023a8.749 8.749 0 0 1-.835.138c-.42.054-.836.08-1.247.08-.411 0-.773-.03-1.086-.093a1.928 1.928 0 0 1-.791-.335 1.448 1.448 0 0 1-.483-.67c-.107-.287-.16-.662-.16-1.127V6.368l.004-.189c.034-.68.256-1.225.666-1.634.447-.447 1.054-.67 1.823-.67h8.93Zm-63.03-.92v3.02H4.362V9.93h7.548v2.986H4.363v7.21H.793V2.953h12.191Zm4.87 4.456v12.716h-3.372V7.41h3.372Zm18.373-4.422v9.263l4.142-4.783h4.118l-4.445 4.865 4.62 7.793H40.65l-3.045-5.437-1.377 1.435v4.002h-3.266V2.988h3.266Zm12.769-.058v17.196h-3.325V2.93h3.325Zm70.153.834c.557-.168 1.508-.205 2.622.287 1.124.498 1.825 1.35 2.103 2.558l6.034.513c.075.005.149.02.223.046.111.039.17.093.22.136a.707.707 0 0 1 .221.331.866.866 0 0 1-.063.77c-.218.336-.559.553-1.024.652l-4.871 1.035.86 4.046c.099.464.317.763.653.897s.773.144 1.308.03c.268-.057.54-.138.817-.244.276-.105.514-.216.713-.333.202.162.387.351.555.568.167.216.287.494.359.833.266 1.255-1.708 2.44-3.002 2.673-1.199.215-3.038.394-4.09-2.36a282.711 282.711 0 0 1-3.963-11.22c-.109-.332-.176-.658-.059-.927.063-.146.109-.208.384-.291Zm-21.074 6.493c-.875 0-1.532.246-1.97.737-.439.492-.658 1.194-.658 2.105 0 1.037.22 1.784.657 2.24.438.456.997.684 1.676.684.734 0 1.315-.17 1.744-.51v-4.934l-.082-.043a3.208 3.208 0 0 0-.468-.172 3.21 3.21 0 0 0-.898-.107Zm-41.502-.444c-.77 0-1.367.241-1.791.723-.424.482-.69 1.136-.8 1.96h5.169c-.055-.879-.321-1.546-.8-2-.478-.456-1.07-.683-1.778-.683Zm-38.72-6.988v3.068h-3.37V2.825h3.37Zm69.16-1.767c.75 0 1.353.233 1.81.698.455.464.683 1.037.683 1.716 0 .68-.228 1.251-.684 1.716-.456.465-1.059.698-1.81.698-.75 0-1.354-.233-1.81-.698-.456-.465-.684-1.037-.684-1.716 0-.68.228-1.252.684-1.716.456-.465 1.06-.698 1.81-.698Z" fill="#fff"/></g><defs><clipPath id="clip0_1038_1489"><path fill="#fff" transform="translate(.793 .666)" d="M0 0h130.072v24.669H0z"/></clipPath></defs></svg>