<svg width="19" height="19" fill="none" xmlns="http://www.w3.org/2000/svg"><path d="M17.027 14.679a7.176 7.176 0 0 1-1.251-1.46 6.293 6.293 0 0 1-.673-2.397V8.36a5.387 5.387 0 0 0-4.704-5.358V2.36a.665.665 0 1 0-1.331 0v.653a5.387 5.387 0 0 0-4.65 5.348v2.462a6.295 6.295 0 0 1-.673 2.397 7.175 7.175 0 0 1-1.23 1.46.498.498 0 0 0-.17.374v.677a.498.498 0 0 0 .498.499h13.855a.498.498 0 0 0 .498-.498v-.678a.497.497 0 0 0-.17-.374Zm-13.645.553c.463-.448.871-.95 1.216-1.495.48-.901.76-1.896.822-2.915V8.36a4.356 4.356 0 1 1 8.706 0v2.462a7.097 7.097 0 0 0 .822 2.915 8.055 8.055 0 0 0 1.216 1.495H3.383ZM9.796 17.864a1.331 1.331 0 0 0 1.285-1.137H8.46a1.33 1.33 0 0 0 1.336 1.137Z" fill="#424242"/><circle cx="14.622" cy="4.874" r="2.616" fill="#F99A0E" stroke="#fff" stroke-width=".748"/></svg>