<svg width="98" height="23" fill="none" xmlns="http://www.w3.org/2000/svg"><g clip-path="url('#clip0_1038_1495')"><path d="M12.007.714C6.06.714 1.242 5.534 1.242 11.48s4.82 10.765 10.765 10.765 10.764-4.82 10.764-10.765S17.951.714 12.007.714Zm2.55 7.44h-1.619c-.191 0-.405.251-.405.587v1.168h2.024l-.306 1.666h-1.717v5.003h-1.91v-5.003H8.892V9.91h1.732v-.98c0-1.406.976-2.549 2.314-2.549h1.618v1.773Z" fill="#fff"/></g><g clip-path="url('#clip1_1038_1495')"><path d="M86.76.714c-5.945 0-10.764 4.82-10.764 10.765s4.82 10.765 10.764 10.765c5.946 0 10.765-4.82 10.765-10.765S92.705.714 86.76.714Zm4.38 8.818c.004.092.005.184.005.274 0 2.803-2.132 6.034-6.032 6.034a5.983 5.983 0 0 1-3.25-.953c.166.02.335.028.506.028.994 0 1.908-.338 2.633-.907a2.125 2.125 0 0 1-1.98-1.472c.317.06.645.048.956-.037a2.121 2.121 0 0 1-1.7-2.079v-.025c.285.158.613.254.96.265a2.12 2.12 0 0 1-.656-2.832 6.028 6.028 0 0 0 4.37 2.217 2.121 2.121 0 0 1 3.613-1.934c.475-.094.93-.268 1.346-.515a2.13 2.13 0 0 1-.932 1.174c.42-.05.83-.164 1.218-.335a4.3 4.3 0 0 1-1.058 1.097Z" fill="#fff"/></g><g clip-path="url('#clip2_1038_1495')"><path d="M52.747 11.479a3.364 3.364 0 1 1-6.727 0c0-.192.02-.38.054-.56h-1.176V15.4c0 .312.252.564.564.564h7.844a.564.564 0 0 0 .563-.564v-4.482h-1.176c.034.182.054.37.054.56Zm-3.364 2.243a2.242 2.242 0 1 0 0-4.485 2.242 2.242 0 0 0 0 4.485Zm2.692-4.598h1.344a.337.337 0 0 0 .338-.336V7.443a.338.338 0 0 0-.338-.337h-1.344a.337.337 0 0 0-.338.337v1.345a.34.34 0 0 0 .338.336ZM49.383.714a10.764 10.764 0 1 0 0 21.53 10.764 10.764 0 0 0 0-21.53ZM54.99 15.84a1.25 1.25 0 0 1-1.246 1.245h-8.721a1.25 1.25 0 0 1-1.246-1.245V7.118c0-.685.56-1.246 1.246-1.246h8.721c.685 0 1.246.561 1.246 1.246v8.722Z" fill="#fff"/></g><defs><clipPath id="clip0_1038_1495"><path fill="#fff" transform="translate(.793 .266)" d="M0 0h22.426v22.426H0z"/></clipPath><clipPath id="clip1_1038_1495"><path fill="#fff" transform="translate(75.547 .266)" d="M0 0h22.426v22.426H0z"/></clipPath><clipPath id="clip2_1038_1495"><path fill="#fff" transform="translate(38.17 .266)" d="M0 0h22.426v22.426H0z"/></clipPath></defs></svg>