<svg width="14" height="14" fill="none" xmlns="http://www.w3.org/2000/svg"><path d="m12.741 5.496-3.73-.586-1.667-3.656a.488.488 0 0 0-.213-.23c-.232-.124-.514-.02-.63.23L4.833 4.91l-3.73.586a.458.458 0 0 0-.268.148.532.532 0 0 0-.133.362.53.53 0 0 0 .142.358l2.698 2.845-.637 4.018a.546.546 0 0 0 .027.278.504.504 0 0 0 .16.22.44.44 0 0 0 .495.038l3.335-1.897 3.337 1.896c.09.053.196.07.298.051.255-.047.427-.31.383-.586l-.637-4.018L13 6.364a.522.522 0 0 0 .137-.29c.04-.279-.14-.536-.397-.578Z" fill="#FDBF00"/></svg>