<svg width="14" height="14" fill="none" xmlns="http://www.w3.org/2000/svg"><path d="M12.977 5.496 9.24 4.91 7.57 1.254a.489.489 0 0 0-.214-.23c-.233-.124-.515-.02-.632.23L5.054 4.91l-3.737.586a.459.459 0 0 0-.27.148.531.531 0 0 0-.133.362.53.53 0 0 0 .142.358L3.76 9.209l-.639 4.018a.545.545 0 0 0 .028.278.504.504 0 0 0 .16.22.44.44 0 0 0 .496.038l3.342-1.897 3.342 1.896c.092.053.198.07.3.051.255-.047.427-.31.383-.586l-.639-4.018 2.704-2.845a.523.523 0 0 0 .137-.29c.04-.279-.14-.536-.397-.578Z" fill="#FDBF00"/></svg>