<svg width="22" height="21" fill="none" xmlns="http://www.w3.org/2000/svg"><path d="M18.88 4.233c-.236-.644-.896-1.101-1.673-1.101H14.26v-1.09c0-.6-.53-1.09-1.178-1.09H8.371c-.648 0-1.178.49-1.178 1.09v1.09H4.248c-.778 0-1.426.457-1.673 1.1l-2.32 6.182a2.11 2.11 0 0 0-.13.72v7.805c0 .905.789 1.635 1.767 1.635.977 0 1.767-.73 1.767-1.635v-.545h14.137v.545c0 .894.789 1.635 1.767 1.635.966 0 1.767-.73 1.767-1.635v-7.806c0-.24-.047-.49-.13-.72l-2.32-6.18ZM4.247 15.123c-.978 0-1.767-.73-1.767-1.635s.789-1.635 1.767-1.635c.978 0 1.767.73 1.767 1.635s-.79 1.635-1.767 1.635Zm12.959 0c-.978 0-1.768-.73-1.768-1.635s.79-1.635 1.768-1.635c.977 0 1.767.73 1.767 1.635s-.79 1.635-1.767 1.635ZM2.48 9.673l1.767-4.906h12.959l1.767 4.906H2.48Z" fill="#fff"/></svg>