<svg width="13" height="14" fill="none" xmlns="http://www.w3.org/2000/svg"><path d="m12.166 5.496-3.73-.586L6.77 1.254a.488.488 0 0 0-.213-.23c-.232-.124-.514-.02-.63.23L4.26 4.91l-3.73.586a.458.458 0 0 0-.269.148.532.532 0 0 0-.133.362.53.53 0 0 0 .142.358l2.699 2.845-.638 4.018a.546.546 0 0 0 .028.278.504.504 0 0 0 .159.22.44.44 0 0 0 .495.038l3.336-1.897 3.336 1.896c.091.053.197.07.298.051.256-.047.428-.31.384-.586L9.728 9.21l2.699-2.845a.523.523 0 0 0 .136-.29c.04-.279-.14-.536-.397-.578Z" fill="#FDBF00"/></svg>