<svg width="21" height="25" fill="none" xmlns="http://www.w3.org/2000/svg"><path d="M.458 17.868c0 1.096.49 2.08 1.258 2.766v1.594c0 1.034.842 1.87 1.886 1.87a1.875 1.875 0 0 0 1.887-1.87v-.623h10.06v.623c0 1.022.843 1.87 1.887 1.87 1.032 0 1.887-.835 1.887-1.87v-1.594a3.705 3.705 0 0 0 1.257-2.766V5.408c0-4.36-4.502-4.983-10.06-4.983C4.96.425.457 1.048.457 5.41v12.459Zm4.402 1.246a1.875 1.875 0 0 1-1.887-1.87c0-1.033.843-1.868 1.887-1.868s1.886.835 1.886 1.869a1.875 1.875 0 0 1-1.886 1.869Zm11.319 0a1.875 1.875 0 0 1-1.887-1.87c0-1.033.843-1.868 1.887-1.868 1.043 0 1.886.835 1.886 1.869a1.875 1.875 0 0 1-1.886 1.869Zm1.886-7.476H2.973v-6.23h15.092v6.23Z" fill="#fff"/></svg>