<svg width="19" height="20" fill="none" xmlns="http://www.w3.org/2000/svg"><g clip-path="url('#clip0_1038_1444')" fill="#1262AF"><path d="M9.618 17.854a7.702 7.702 0 1 1 0-15.404 7.702 7.702 0 0 1 0 15.404Zm0 1.1a8.803 8.803 0 1 0 0-17.605 8.803 8.803 0 0 0 0 17.606Z"/><path d="M7.653 6.414a.635.635 0 0 1 .66.049l4.442 3.172a.635.635 0 0 1 0 1.034l-4.442 3.173a.635.635 0 0 1-1.004-.517V6.979a.635.635 0 0 1 .344-.565Z"/></g><defs><clipPath id="clip0_1038_1444"><path fill="#fff" transform="translate(.274 .808)" d="M0 0h18.689v18.689H0z"/></clipPath></defs></svg>